PathFileType  4	(X/Y/Z) C:\Users\antoi\Documents\MyRepositories\mobilecap\ResultsAnalysis
DataRate	CameraRate	NumFrames	NumMarkers	Units	OrigDataRate	OrigDataStartFrame	OrigNumFrames
100.0	100.0	4	51	mm	100.0	36	284
Frame#	Time	r_knee			r_shank_antsup			r_ankle			r_calc			r_5meta			r_toe			L_knee			L_shank_antsup			L_ankle			L_calc			L_5meta			L_toe			r_sh2			r_sh3			r_sh4			L_sh2			L_sh3			r_thigh1			r_thigh2			r_thigh3			r_thigh4			r_thigh5			L_thigh1			L_thigh2			L_thigh3			L_thigh4			r.ASIS			r.PSIS			L.ASIS			L.PSIS			C7			R_Shoulder			L_Shoulder			R_Sternum			L_Sternum			R_humerus			R_elbow_med			R_elbow_lat			R_forearm			R_wrist_radius			R_wrist_ulna			L_humerus			L_elbow_med			L_elbow_lat			L_forearm			L_wrist_radius			L_wrist_ulna			R_HJC			L_HJC			R_HJC_reg			L_HJC_reg			
		X1	Y1	Z1	X2	Y2	Z2	X3	Y3	Z3	X4	Y4	Z4	X5	Y5	Z5	X6	Y6	Z6	X7	Y7	Z7	X8	Y8	Z8	X9	Y9	Z9	X10	Y10	Z10	X11	Y11	Z11	X12	Y12	Z12	X13	Y13	Z13	X14	Y14	Z14	X15	Y15	Z15	X16	Y16	Z16	X17	Y17	Z17	X18	Y18	Z18	X19	Y19	Z19	X20	Y20	Z20	X21	Y21	Z21	X22	Y22	Z22	X23	Y23	Z23	X24	Y24	Z24	X25	Y25	Z25	X26	Y26	Z26	X27	Y27	Z27	X28	Y28	Z28	X29	Y29	Z29	X30	Y30	Z30	X31	Y31	Z31	X32	Y32	Z32	X33	Y33	Z33	X34	Y34	Z34	X35	Y35	Z35	X36	Y36	Z36	X37	Y37	Z37	X38	Y38	Z38	X39	Y39	Z39	X40	Y40	Z40	X41	Y41	Z41	X42	Y42	Z42	X43	Y43	Z43	X44	Y44	Z44	X45	Y45	Z45	X46	Y46	Z46	X47	Y47	Z47	X48	Y48	Z48	X49	Y49	Z49	X50	Y50	Z50	X51	Y51	Z51	

36	0.35000000	-1154.19181	900.85042	-411.29088	-1154.35229	749.95886	-416.17399	-1302.98834	411.80028	-421.71480	-1361.79743	382.32950	-486.30676	-1172.79284	349.61254	-386.38552	-1131.87291	374.57032	-436.59886	-1174.02771	900.51538	-762.56375	-1160.96674	696.28443	-739.32791	-1305.58202	420.97144	-732.34518	-1362.39396	384.14526	-663.53785	-1172.39029	342.70568	-778.20467	-1126.82667	374.23053	-723.19115	-1186.00133	640.05899	-423.65595	-1217.73395	763.10819	-378.76348	-1251.08000	656.91802	-373.46344	-1229.06237	720.44455	-791.16450	-1265.57196	608.09028	-771.31898	-1157.06898	1199.17290	-386.65307	-1126.90830	1089.86741	-388.61496	-1183.07110	1050.86078	-379.06227	-1265.40007	1171.76970	-406.86610	-1234.94658	1055.71924	-399.56580	-1147.29456	1202.48925	-775.05265	-1131.52944	1066.47095	-769.50666	-1258.00439	1190.37694	-779.68442	-1238.67641	1053.70731	-785.72443	-1133.24129	1458.48321	-457.32155	-1312.88836	1519.46157	-536.17481	-1154.58105	1447.13253	-728.17936	-1318.90127	1521.06433	-629.61554	-1141.68290	1987.04281	-608.27292	-1081.22187	1935.67360	-440.85853	-1102.10573	1948.40354	-779.81894	-1024.39565	1871.77057	-583.60348	-1024.12149	1871.82582	-632.67900	-1179.48816	1702.42386	-336.64742	-1308.38824	1616.27749	-353.47911	-1280.98606	1646.58059	-283.90093	-1190.64881	1449.08678	-258.05904	-1157.07649	1362.92320	-257.86729	-1183.54848	1360.64883	-230.69126	-1199.99959	1689.78715	-871.42144	-1318.54770	1649.87579	-845.55916	-1286.30903	1644.34602	-918.76597	-1214.70141	1446.35009	-924.69500	-1192.32588	1376.34269	-912.64553	-1211.57656	1374.65639	-938.50920	-1229.28936	1378.20476	-485.63408	-1248.23558	1375.50227	-682.18077	-1218.83848	1381.15896	-491.90456	-1230.36346	1384.23053	-670.98374	
37	0.36000000	-1154.12497	900.67125	-411.54595	-1154.22349	749.78142	-416.42148	-1302.99064	411.79681	-421.68045	-1361.83963	382.28049	-486.35524	-1172.83959	349.69869	-386.51482	-1131.93491	374.70258	-436.67559	-1174.15057	900.46203	-762.55932	-1161.03963	696.18417	-739.37691	-1305.63642	420.88916	-732.29271	-1362.49114	384.05845	-663.48745	-1172.40501	342.86973	-778.21201	-1126.95103	374.40807	-723.11634	-1185.82473	639.84318	-423.96081	-1217.62990	762.97477	-378.82691	-1250.70736	656.19464	-373.64209	-1229.15243	720.36294	-791.18333	-1265.68374	608.04736	-771.32951	-1157.11881	1198.98706	-386.43571	-1127.00032	1089.70254	-388.66754	-1183.10926	1050.55336	-379.19079	-1265.55069	1171.50982	-406.76733	-1235.01712	1055.47800	-399.62937	-1147.81989	1202.63601	-774.99593	-1131.88515	1066.38147	-769.41944	-1258.41137	1190.23310	-779.64984	-1238.98654	1053.57572	-785.53976	-1133.00825	1457.86823	-457.28700	-1312.55954	1519.67208	-535.98924	-1154.59067	1446.68918	-727.90610	-1318.56302	1521.29807	-629.35686	-1138.42744	1986.22692	-608.28609	-1077.81340	1934.68622	-441.10119	-1099.14972	1947.63118	-779.69629	-1021.75972	1870.24659	-583.71595	-1021.54642	1870.47376	-632.69259	-1178.77722	1703.16228	-336.10879	-1307.99348	1618.87192	-353.16786	-1280.87471	1648.81125	-283.03101	-1192.97333	1450.27891	-256.97178	-1160.56159	1363.65126	-256.76898	-1186.91408	1361.85924	-229.35358	-1200.57567	1691.09725	-872.16927	-1319.89064	1652.97858	-846.69678	-1287.34647	1647.16610	-919.95226	-1218.78480	1447.99276	-926.08024	-1197.61477	1377.67222	-913.67339	-1216.87740	1376.10117	-939.25396	-1229.47053	1378.03357	-485.46253	-1248.53512	1375.44318	-682.00012	-1219.03188	1381.02300	-491.82100	-1230.53424	1384.13949	-670.75354	
38	0.37000000	-1154.16002	900.48855	-411.90932	-1154.18193	749.67484	-416.67352	-1303.00141	411.77352	-421.66443	-1361.89617	382.20402	-486.41081	-1172.88145	349.74095	-386.64980	-1132.01255	374.82917	-436.74454	-1174.38211	900.42808	-762.60747	-1161.17773	696.09531	-739.45636	-1305.74884	420.78203	-732.23873	-1362.60646	383.98593	-663.48169	-1172.43059	343.00038	-778.21053	-1127.13200	374.60166	-723.03684	-1185.76894	639.71821	-424.26960	-1217.70707	762.66315	-379.03728	-1250.84024	656.52219	-373.68290	-1229.36355	720.34084	-791.28087	-1265.90471	608.05319	-771.39164	-1157.11879	1198.72452	-386.31403	-1127.06611	1089.44216	-388.80155	-1183.15596	1050.30269	-379.38015	-1265.60354	1171.23583	-406.79123	-1235.12247	1055.28526	-399.73652	-1148.20006	1202.55696	-775.04171	-1132.29667	1066.26716	-769.50134	-1258.90124	1190.08269	-779.62638	-1239.42329	1053.39034	-785.29258	-1132.66541	1457.24891	-457.38079	-1312.31993	1519.99852	-535.72003	-1154.30548	1446.12661	-727.30673	-1318.11245	1521.55631	-629.22951	-1135.12383	1985.47187	-608.19470	-1074.30650	1933.83116	-441.25342	-1096.12430	1947.00548	-779.80163	-1018.96613	1868.79155	-583.72622	-1018.88239	1869.16993	-632.74913	-1178.03651	1704.09400	-335.61284	-1307.74030	1621.58824	-352.70742	-1280.77338	1651.39640	-282.17943	-1195.52305	1451.69468	-255.84941	-1164.33038	1364.48853	-255.90349	-1190.59046	1363.31158	-228.05493	-1201.38944	1692.55143	-872.56934	-1321.26081	1656.37107	-847.59659	-1288.56524	1650.30544	-921.11589	-1223.19597	1449.93810	-927.63356	-1203.38464	1379.38776	-915.45511	-1222.47459	1378.13510	-940.51827	-1229.64314	1377.92404	-485.19798	-1248.69163	1375.34630	-681.73649	-1219.28440	1381.10748	-491.88901	-1230.33865	1384.08121	-670.39718	
39	0.38000000	-1154.26858	900.35723	-412.26984	-1154.23773	749.58475	-416.93866	-1303.00515	411.71744	-421.64207	-1362.00277	382.02714	-486.39688	-1172.92062	349.79000	-386.73321	-1132.11220	374.95434	-436.79129	-1174.70545	900.35530	-762.62915	-1161.35635	696.02059	-739.60370	-1305.89541	420.65766	-732.23419	-1362.73260	383.92529	-663.56060	-1172.47310	343.09360	-778.16796	-1127.28863	374.80121	-722.95497	-1185.84140	639.61797	-424.57505	-1217.74255	762.30388	-379.42143	-1251.02307	656.95937	-373.77723	-1229.63344	720.39448	-791.37151	-1266.27249	608.08238	-771.39791	-1157.00359	1198.29752	-386.46125	-1127.16053	1089.10585	-389.00335	-1183.21638	1050.15722	-379.56863	-1265.59039	1170.93689	-406.96731	-1235.23673	1055.13440	-399.84501	-1148.19782	1201.66057	-775.32877	-1132.74752	1066.10868	-769.67184	-1259.31732	1190.00345	-779.43080	-1239.91796	1053.23940	-785.06559	-1132.48395	1456.62050	-457.32308	-1312.44418	1520.40791	-535.17481	-1153.37192	1445.71798	-725.86781	-1317.55436	1521.88579	-629.12237	-1131.75802	1984.69987	-608.15647	-1070.68309	1933.07257	-441.23679	-1092.89833	1946.42243	-779.79656	-1016.16328	1867.53186	-583.74980	-1016.10089	1867.86869	-632.97474	-1177.30873	1705.20129	-335.10792	-1307.93312	1624.59745	-351.99136	-1280.84191	1654.28822	-281.36880	-1198.30813	1453.36092	-254.71241	-1168.26803	1365.77688	-254.88142	-1194.51584	1365.12744	-226.66538	-1202.17661	1694.31653	-873.19861	-1322.67963	1660.09265	-848.33837	-1290.04960	1653.77781	-922.03584	-1228.38589	1452.39543	-929.18296	-1209.67398	1381.46916	-917.71501	-1228.49321	1380.86076	-942.56700	-1229.97266	1377.83047	-484.68620	-1248.45178	1375.36492	-681.27858	-1219.77120	1381.47647	-492.09801	-1229.44105	1384.26970	-669.73003	
